M48
; DRILL file {KiCad (7.0.0)} date Sun May 28 23:37:24 2023
; FORMAT={-:-/ absolute / metric / decimal}
; #@! TF.CreationDate,2023-05-28T23:37:24+08:00
; #@! TF.GenerationSoftware,Kicad,Pcbnew,(7.0.0)
; #@! TF.FileFunction,MixedPlating,1,2
FMAT,2
METRIC
; #@! TA.AperFunction,Plated,PTH,ComponentDrill
T1C0.500
; #@! TA.AperFunction,Plated,PTH,ViaDrill
T2C0.600
; #@! TA.AperFunction,Plated,PTH,ViaDrill
T3C0.635
; #@! TA.AperFunction,Plated,PTH,ComponentDrill
T4C0.800
; #@! TA.AperFunction,Plated,PTH,ComponentDrill
T5C0.900
; #@! TA.AperFunction,Plated,PTH,ComponentDrill
T6C1.000
; #@! TA.AperFunction,Plated,PTH,ComponentDrill
T7C1.020
; #@! TA.AperFunction,Plated,PTH,ComponentDrill
T8C1.630
; #@! TA.AperFunction,Plated,PTH,ComponentDrill
T9C3.200
; #@! TA.AperFunction,NonPlated,NPTH,ComponentDrill
T10C3.250
%
G90
G05
T1
X198.641Y-66.04
X198.641Y-120.015
X199.344Y-64.343
X199.344Y-67.737
X199.344Y-118.318
X199.344Y-121.712
X201.041Y-63.64
X201.041Y-68.44
X201.041Y-117.615
X201.041Y-122.415
X202.738Y-64.343
X202.738Y-67.737
X202.738Y-118.318
X202.738Y-121.712
X203.441Y-66.04
X203.441Y-120.015
T2
X138.983Y-93.517
T3
X114.416Y-114.167
X114.5Y-115.25
X116.0Y-115.575
X117.482Y-116.37
X119.0Y-117.195
X120.5Y-118.02
X122.0Y-118.825
X123.5Y-119.65
X127.635Y-102.87
X127.635Y-105.41
X130.569Y-113.353
X131.47Y-106.35
X131.9Y-73.8
X132.116Y-112.528
X133.121Y-120.167
X133.572Y-111.66
X134.7Y-105.4
X135.6Y-103.0
X141.394Y-119.342
X141.905Y-121.044
X142.064Y-118.497
X144.297Y-121.578
X145.186Y-120.74
X147.447Y-109.093
X148.082Y-108.077
X148.3Y-88.025
X148.717Y-109.093
X148.9Y-92.2
X149.25Y-88.85
X150.578Y-93.678
X150.876Y-97.282
X150.876Y-99.06
X151.2Y-94.7
X152.149Y-95.48
X152.55Y-106.15
X152.975Y-96.175
X153.797Y-106.172
X154.629Y-81.771
X154.646Y-82.954
X154.662Y-84.138
X154.679Y-85.321
X154.696Y-86.504
X157.099Y-93.726
X160.975Y-106.172
X161.39Y-119.55
X162.513Y-119.596
X163.679Y-119.596
X164.846Y-119.596
X165.481Y-93.726
X169.164Y-95.775
X171.704Y-91.592
X171.704Y-92.71
X171.831Y-107.315
X171.831Y-108.458
X174.117Y-112.268
X175.797Y-97.9
X181.991Y-110.998
T4
X105.45Y-117.856
X107.95Y-117.856
X114.3Y-71.12
X114.3Y-73.66
X114.3Y-76.2
X114.3Y-78.74
X114.3Y-81.28
X114.3Y-83.82
X114.3Y-86.36
X114.3Y-88.9
X114.3Y-91.44
X114.3Y-93.98
X114.3Y-96.52
X114.3Y-99.06
X114.3Y-101.6
X114.3Y-104.14
X114.3Y-106.68
X114.3Y-109.22
X124.5Y-67.5
X129.5Y-67.5
X129.54Y-71.12
X129.54Y-73.66
X129.54Y-76.2
X129.54Y-78.74
X129.54Y-81.28
X129.54Y-83.82
X129.54Y-86.36
X129.54Y-88.9
X129.54Y-91.44
X129.54Y-93.98
X129.54Y-96.52
X129.54Y-99.06
X129.54Y-101.6
X129.54Y-104.14
X129.54Y-106.68
X129.54Y-109.22
X135.081Y-78.7
X135.138Y-82.68
X135.138Y-90.3
X135.255Y-107.696
X137.678Y-82.68
X137.678Y-90.3
X140.081Y-78.7
X140.218Y-82.68
X140.218Y-90.3
X142.758Y-82.68
X142.758Y-90.3
X142.875Y-107.696
X143.55Y-98.846
X143.55Y-103.846
X145.179Y-63.0
X146.384Y-66.18
X146.384Y-73.8
X147.719Y-63.0
X148.924Y-66.18
X148.924Y-73.8
X150.259Y-63.0
X152.799Y-63.0
X155.339Y-63.0
X155.365Y-66.18
X155.365Y-73.8
X157.879Y-63.0
X157.905Y-66.18
X157.905Y-73.8
X160.419Y-63.0
X161.79Y-83.7
X162.8Y-86.95
X162.959Y-63.0
X164.315Y-66.18
X164.315Y-73.8
X165.499Y-63.0
X166.855Y-66.18
X166.855Y-73.8
X167.8Y-86.95
X169.395Y-66.18
X169.395Y-73.8
X169.41Y-83.7
X171.438Y-117.05
X171.935Y-66.18
X171.935Y-73.8
X173.5Y-63.0
X173.938Y-117.05
X174.5Y-81.595
X174.5Y-86.475
X176.04Y-63.0
X178.54Y-66.18
X178.54Y-73.8
X178.58Y-63.0
X179.0Y-91.8
X179.0Y-96.8
X179.69Y-84.1
X180.9Y-87.35
X180.95Y-80.85
X181.08Y-66.18
X181.08Y-73.8
X181.12Y-63.0
X182.5Y-91.8
X182.5Y-96.8
X183.62Y-66.18
X183.62Y-73.8
X183.66Y-63.0
X185.9Y-87.35
X185.95Y-80.85
X186.16Y-66.18
X186.16Y-73.8
X186.2Y-63.0
X187.31Y-84.1
X188.7Y-66.18
X188.7Y-73.8
X188.74Y-63.0
X191.28Y-63.0
X192.38Y-80.85
X192.38Y-84.1
X192.38Y-87.35
X193.82Y-63.0
X200.0Y-80.85
X200.0Y-84.1
X200.0Y-87.35
T5
X186.69Y-96.652
X186.69Y-99.192
X186.69Y-101.732
X186.69Y-104.272
X189.23Y-97.912
X189.23Y-100.452
X189.23Y-102.992
X189.23Y-105.532
T6
X105.41Y-63.5
X105.41Y-66.04
X105.41Y-68.58
X105.41Y-71.12
X105.41Y-73.66
X105.41Y-76.2
X105.41Y-78.74
X105.41Y-81.28
X105.41Y-83.82
X105.41Y-86.36
X105.41Y-88.9
X105.41Y-91.44
X105.41Y-93.98
X105.41Y-96.52
X105.41Y-99.06
X105.41Y-101.6
X105.41Y-104.14
X105.41Y-106.68
X105.41Y-109.22
X105.41Y-111.76
X107.95Y-63.5
X107.95Y-66.04
X107.95Y-68.58
X107.95Y-71.12
X107.95Y-73.66
X107.95Y-76.2
X107.95Y-78.74
X107.95Y-81.28
X107.95Y-83.82
X107.95Y-86.36
X107.95Y-88.9
X107.95Y-91.44
X107.95Y-93.98
X107.95Y-96.52
X107.95Y-99.06
X107.95Y-101.6
X107.95Y-104.14
X107.95Y-106.68
X107.95Y-109.22
X107.95Y-111.76
T7
X200.49Y-94.467
X200.49Y-97.007
X200.49Y-105.177
X200.49Y-107.717
T8
X192.54Y-93.347
X192.54Y-108.837
T9
X201.041Y-66.04
X201.041Y-120.015
T10
X195.59Y-95.377
X195.59Y-106.807
T0
M30
